<svg width="640" height="520" viewBox="0 0 640 520" fill="none" xmlns="http://www.w3.org/2000/svg" role="img" aria-labelledby="title desc">
  <title id="title">Backend systems illustration</title>
  <desc id="desc">Abstract connected services, data streams, and infrastructure nodes.</desc>
  <rect width="640" height="520" rx="48" fill="#0F172A"/>
  <circle cx="510" cy="92" r="112" fill="#1D4ED8" opacity="0.2"/>
  <circle cx="118" cy="428" r="126" fill="#14B8A6" opacity="0.18"/>
  <path d="M142 165H498" stroke="#334155" stroke-width="8" stroke-linecap="round"/>
  <path d="M142 260H498" stroke="#334155" stroke-width="8" stroke-linecap="round"/>
  <path d="M142 355H498" stroke="#334155" stroke-width="8" stroke-linecap="round"/>
  <rect x="82" y="116" width="128" height="98" rx="22" fill="#111827" stroke="#38BDF8" stroke-width="4"/>
  <rect x="256" y="211" width="128" height="98" rx="22" fill="#111827" stroke="#22C55E" stroke-width="4"/>
  <rect x="430" y="306" width="128" height="98" rx="22" fill="#111827" stroke="#A78BFA" stroke-width="4"/>
  <circle cx="146" cy="165" r="18" fill="#38BDF8"/>
  <circle cx="320" cy="260" r="18" fill="#22C55E"/>
  <circle cx="494" cy="355" r="18" fill="#A78BFA"/>
  <path d="M210 165C246 165 255 260 256 260" stroke="#64748B" stroke-width="5" stroke-linecap="round"/>
  <path d="M384 260C420 260 429 355 430 355" stroke="#64748B" stroke-width="5" stroke-linecap="round"/>
  <path d="M110 436C176 396 213 395 286 431C360 468 425 467 530 408" stroke="#38BDF8" stroke-width="5" stroke-linecap="round" opacity="0.75"/>
  <path d="M116 454C192 418 232 423 298 454C371 488 436 476 538 431" stroke="#22C55E" stroke-width="5" stroke-linecap="round" opacity="0.65"/>
  <rect x="110" y="146" width="72" height="10" rx="5" fill="#E2E8F0"/>
  <rect x="110" y="174" width="48" height="10" rx="5" fill="#94A3B8"/>
  <rect x="284" y="241" width="72" height="10" rx="5" fill="#E2E8F0"/>
  <rect x="284" y="269" width="48" height="10" rx="5" fill="#94A3B8"/>
  <rect x="458" y="336" width="72" height="10" rx="5" fill="#E2E8F0"/>
  <rect x="458" y="364" width="48" height="10" rx="5" fill="#94A3B8"/>
  <circle cx="548" cy="148" r="8" fill="#22C55E"/>
  <circle cx="576" cy="180" r="6" fill="#38BDF8"/>
  <circle cx="72" cy="284" r="7" fill="#A78BFA"/>
</svg>
